<?xml version="1.0" encoding="UTF-8" standalone="no"?>
<!-- Created with Inkscape (http://www.inkscape.org/) -->

<svg
   xmlns:dc="http://purl.org/dc/elements/1.1/"
   xmlns:cc="http://creativecommons.org/ns#"
   xmlns:rdf="http://www.w3.org/1999/02/22-rdf-syntax-ns#"
   xmlns:svg="http://www.w3.org/2000/svg"
   xmlns="http://www.w3.org/2000/svg"
   xmlns:sodipodi="http://sodipodi.sourceforge.net/DTD/sodipodi-0.dtd"
   xmlns:inkscape="http://www.inkscape.org/namespaces/inkscape"
   width="16px"
   height="16px"
   id="svg3751"
   version="1.1"
   inkscape:version="0.48.5 r10040"
   sodipodi:docname="add.svg">
  <defs
     id="defs3753" />
  <sodipodi:namedview
     id="base"
     pagecolor="#d3d3d3"
     bordercolor="#666666"
     borderopacity="1.0"
     inkscape:pageopacity="0.82745098"
     inkscape:pageshadow="2"
     inkscape:zoom="22.197802"
     inkscape:cx="0.97227717"
     inkscape:cy="8"
     inkscape:current-layer="layer1"
     showgrid="true"
     inkscape:grid-bbox="true"
     inkscape:document-units="px"
     inkscape:window-width="847"
     inkscape:window-height="680"
     inkscape:window-x="282"
     inkscape:window-y="208"
     inkscape:window-maximized="0" />
  <metadata
     id="metadata3756">
    <rdf:RDF>
      <cc:Work
         rdf:about="">
        <dc:format>image/svg+xml</dc:format>
        <dc:type
           rdf:resource="http://purl.org/dc/dcmitype/StillImage" />
        <dc:title></dc:title>
      </cc:Work>
    </rdf:RDF>
  </metadata>
  <g
     id="layer1"
     inkscape:label="Layer 1"
     inkscape:groupmode="layer">
    <path
       d="m 14.049687,6.51125 c 0.2325,0 0.43125,0.0825 0.59625,0.245625 0.165,0.165 0.2475,0.36375 0.2475,0.59625 l 0,1.29375 c 0,0.234375 -0.0825,0.43125 -0.2475,0.59625 -0.165,0.165 -0.36375,0.2475 -0.59625,0.2475 l -4.5599995,0 0,4.543125 c 0,0.245625 -0.0825,0.45 -0.245625,0.613125 -0.165,0.165 -0.365625,0.2475 -0.598125,0.2475 l -1.291875,0 c -0.2325,0 -0.433125,-0.0825 -0.598125,-0.2475 -0.165,-0.163125 -0.245625,-0.361875 -0.245625,-0.59625 l 0,-4.56 -4.54125,0 c -0.245625,0 -0.451875,-0.07875 -0.615,-0.238125 -0.165,-0.1575 -0.2475,-0.36 -0.2475,-0.605625 l 0,-1.29375 c 0,-0.2325 0.0825,-0.43125 0.2475,-0.59625 0.163125,-0.163125 0.361875,-0.245625 0.59625,-0.245625 l 4.56,0 0,-4.543125 c 0,-0.245625 0.07875,-0.45 0.23625,-0.615 0.159375,-0.163125 0.361875,-0.2475 0.6075,-0.2475 l 1.291875,0 c 0.2325,0 0.433125,0.084375 0.598125,0.2475 0.163125,0.165 0.245625,0.36375 0.245625,0.59625 l 0,4.561875 z"
       id="path654"
       inkscape:connector-curvature="0"
       style="fill:#ffffff;stroke:none;fill-opacity:1" />
  </g>
</svg>
