<?xml version="1.0" encoding="UTF-8" standalone="no"?>
<!-- Created with Inkscape (http://www.inkscape.org/) -->

<svg
   xmlns:dc="http://purl.org/dc/elements/1.1/"
   xmlns:cc="http://creativecommons.org/ns#"
   xmlns:rdf="http://www.w3.org/1999/02/22-rdf-syntax-ns#"
   xmlns:svg="http://www.w3.org/2000/svg"
   xmlns="http://www.w3.org/2000/svg"
   xmlns:sodipodi="http://sodipodi.sourceforge.net/DTD/sodipodi-0.dtd"
   xmlns:inkscape="http://www.inkscape.org/namespaces/inkscape"
   width="16px"
   height="16px"
   id="svg6030"
   version="1.1"
   inkscape:version="0.48.5 r10040"
   sodipodi:docname="calendar.svg">
  <defs
     id="defs6032" />
  <sodipodi:namedview
     id="base"
     pagecolor="#000000"
     bordercolor="#666666"
     borderopacity="1.0"
     inkscape:pageopacity="0.68627451"
     inkscape:pageshadow="2"
     inkscape:zoom="22.197802"
     inkscape:cx="0.97227717"
     inkscape:cy="8"
     inkscape:current-layer="layer1"
     showgrid="true"
     inkscape:grid-bbox="true"
     inkscape:document-units="px"
     inkscape:window-width="1378"
     inkscape:window-height="637"
     inkscape:window-x="178"
     inkscape:window-y="104"
     inkscape:window-maximized="0" />
  <metadata
     id="metadata6035">
    <rdf:RDF>
      <cc:Work
         rdf:about="">
        <dc:format>image/svg+xml</dc:format>
        <dc:type
           rdf:resource="http://purl.org/dc/dcmitype/StillImage" />
        <dc:title></dc:title>
      </cc:Work>
    </rdf:RDF>
  </metadata>
  <g
     id="layer1"
     inkscape:label="Layer 1"
     inkscape:groupmode="layer">
    <path
       d="m 11.226875,4.578125 c 0,0.34125 0.226875,0.508125 0.6825,0.508125 0.45375,0 0.67875,-0.166875 0.673125,-0.508125 l 0,-2.0475 c 0,-0.339375 -0.225,-0.511875 -0.673125,-0.511875 -0.455625,0 -0.6825,0.1725 -0.6825,0.511875 z m 2.386875,6.793125 -2.540625,0 0,2.244375 2.540625,0 z m 0,-2.604375 -2.540625,0 0,2.263125 2.540625,0 z m 0,-2.61 -2.540625,0 0,2.263125 2.540625,0 z m -2.889375,5.214375 -2.548125,0 0,2.244375 2.548125,0 z m 0,-2.604375 -2.548125,0 0,2.263125 2.548125,0 z m 0,-2.61 -2.548125,0 0,2.263125 2.548125,0 z m -3.39375,-1.57875 c 0,0.18375 0.04875,0.315 0.144375,0.391875 0.095625,0.080625 0.26625,0.11625 0.511875,0.11625 0.245625,0 0.42,-0.039375 0.525,-0.12 0.105,-0.080625 0.1575,-0.208125 0.1575,-0.388125 l 0,-2.0475 c 0,-0.17625 -0.0525,-0.30375 -0.1575,-0.388125 C 8.406875,2.058125 8.2325,2.01875 7.986875,2.01875 7.74125,2.01875 7.570625,2.061875 7.475,2.15 7.379375,2.234375 7.330625,2.361875 7.330625,2.530625 z m 0.495,6.793125 -2.5575,0 0,2.244375 2.5575,0 z m 0,-2.604375 -2.5575,0 0,2.263125 2.5575,0 z m 0,-2.61 -2.5575,0 0,2.263125 2.5575,0 z M 3.41,4.578125 c 0,0.34125 0.226875,0.508125 0.680625,0.508125 0.455625,0 0.6825,-0.166875 0.6825,-0.508125 l 0,-2.0475 C 4.773125,2.19125 4.54625,2.01875 4.090625,2.01875 3.636875,2.01875 3.41,2.19125 3.41,2.530625 z m 1.5075,6.793125 -2.53125,0 0,2.244375 2.53125,0 z m 0,-2.604375 -2.53125,0 0,2.263125 2.53125,0 z m 0,-2.61 -2.53125,0 0,2.263125 2.53125,0 z M 13.983125,2.64875 c 0.28125,0 0.525,0.10125 0.735,0.3075 0.21,0.208125 0.315,0.45 0.315,0.73125 l 0,10.295625 c 0,0.28125 -0.105,0.526875 -0.315,0.735 -0.21,0.21 -0.45375,0.315 -0.735,0.315 l -11.96625,0 c -0.28125,0 -0.525,-0.105 -0.735,-0.315 -0.21,-0.208125 -0.315,-0.45375 -0.315,-0.735 l 0,-10.295625 c 0,-0.28125 0.105,-0.523125 0.315,-0.73125 0.21,-0.20625 0.45375,-0.3075 0.735,-0.3075 l 0.350625,0 0,-0.118125 C 2.3675,2.345 2.3975,2.1575 2.4575,1.97 2.5175,1.780625 2.615,1.611875 2.75,1.465625 c 0.133125,-0.14625 0.31125,-0.264375 0.5325,-0.36 0.22125,-0.09 0.49125,-0.13875 0.808125,-0.13875 0.316875,0 0.586875,0.04875 0.808125,0.13875 0.22125,0.095625 0.399375,0.21375 0.534375,0.36 0.133125,0.14625 0.2325,0.31875 0.29625,0.508125 0.06375,0.19125 0.09375,0.376875 0.09375,0.556875 l 0,0.118125 0.440625,0 0,-0.118125 C 6.26375,2.345 6.29375,2.1575 6.351875,1.97 6.41375,1.780625 6.509375,1.611875 6.644375,1.465625 6.779375,1.319375 6.9575,1.20125 7.17875,1.105625 7.4,1.015625 7.67,0.966875 7.986875,0.966875 c 0.316875,0 0.585,0.04875 0.808125,0.13875 0.22125,0.095625 0.40125,0.21375 0.541875,0.36 C 9.4775,1.611875 9.580625,1.784375 9.6425,1.97375 9.704375,2.165 9.738125,2.350625 9.738125,2.530625 l 0,0.118125 0.43875,0 0,-0.118125 c 0,-0.185625 0.03187,-0.373125 0.09375,-0.560625 0.06375,-0.189375 0.16125,-0.358125 0.29625,-0.504375 0.135,-0.14625 0.31125,-0.264375 0.530625,-0.36 0.2175,-0.09 0.4875,-0.13875 0.811875,-0.13875 0.316875,0 0.586875,0.04875 0.808125,0.13875 0.22125,0.095625 0.399375,0.21375 0.534375,0.36 0.133125,0.14625 0.230625,0.31875 0.290625,0.508125 0.06,0.19125 0.09,0.376875 0.09,0.556875 l 0,0.118125 z"
       id="path60"
       inkscape:connector-curvature="0"
       style="fill:#ffffff;stroke:none;fill-opacity:1" />
  </g>
</svg>
