<?xml version="1.0" encoding="UTF-8" standalone="no"?>
<!-- Created with Inkscape (http://www.inkscape.org/) -->

<svg
   xmlns:dc="http://purl.org/dc/elements/1.1/"
   xmlns:cc="http://creativecommons.org/ns#"
   xmlns:rdf="http://www.w3.org/1999/02/22-rdf-syntax-ns#"
   xmlns:svg="http://www.w3.org/2000/svg"
   xmlns="http://www.w3.org/2000/svg"
   xmlns:sodipodi="http://sodipodi.sourceforge.net/DTD/sodipodi-0.dtd"
   xmlns:inkscape="http://www.inkscape.org/namespaces/inkscape"
   width="16px"
   height="16px"
   id="svg10096"
   version="1.1"
   inkscape:version="0.48.5 r10040"
   sodipodi:docname="speakers.svg">
  <defs
     id="defs10098" />
  <sodipodi:namedview
     id="base"
     pagecolor="#d3d3d3"
     bordercolor="#666666"
     borderopacity="1.0"
     inkscape:pageopacity="0.82745098"
     inkscape:pageshadow="2"
     inkscape:zoom="22.197802"
     inkscape:cx="0.97227717"
     inkscape:cy="8"
     inkscape:current-layer="layer1"
     showgrid="true"
     inkscape:grid-bbox="true"
     inkscape:document-units="px"
     inkscape:window-width="1283"
     inkscape:window-height="893"
     inkscape:window-x="126"
     inkscape:window-y="52"
     inkscape:window-maximized="0" />
  <metadata
     id="metadata10101">
    <rdf:RDF>
      <cc:Work
         rdf:about="">
        <dc:format>image/svg+xml</dc:format>
        <dc:type
           rdf:resource="http://purl.org/dc/dcmitype/StillImage" />
        <dc:title></dc:title>
      </cc:Work>
    </rdf:RDF>
  </metadata>
  <g
     id="layer1"
     inkscape:label="Layer 1"
     inkscape:groupmode="layer">
    <path
       d="m 15.999999,8.9119016 c 0,0.7723642 -0.231885,1.4889374 -0.692166,2.1427444 -0.463767,0.653808 -1.086193,1.196032 -1.870763,1.63016 0.04533,0.261522 0.09764,0.481202 0.158657,0.659037 0.06103,0.179579 0.132505,0.331262 0.212705,0.465511 0.08194,0.129018 0.163888,0.245831 0.251063,0.348697 0.08543,0.102866 0.179579,0.203988 0.278958,0.30511 0.05579,0.05579 0.10461,0.106353 0.146454,0.153426 0.04184,0.04882 0.05057,0.09938 0.0279,0.155171 l 0,0.01744 c -0.01046,0.0645 -0.04358,0.118557 -0.102866,0.162144 -0.05928,0.04184 -0.120301,0.05579 -0.188297,0.04533 -0.127274,-0.02092 -0.249319,-0.04358 -0.362645,-0.06277 -0.113327,-0.01917 -0.226654,-0.03836 -0.338237,-0.06277 -0.535256,-0.111578 -1.035637,-0.27721 -1.502892,-0.500375 -0.467255,-0.221424 -0.901384,-0.486433 -1.300643,-0.793287 -0.195271,0.02266 -0.394028,0.04184 -0.598017,0.05928 -0.2022442,0.0157 -0.4062315,0.02616 -0.6137067,0.02616 -0.7845701,0 -1.522066,-0.09938 -2.2107442,-0.292906 -0.6904216,-0.19527 -1.3163342,-0.456794 -1.8777377,-0.786312 0.033126,-0.02092 0.06974,-0.04358 0.1115833,-0.06625 0.041844,-0.02092 0.080201,-0.04358 0.1133268,-0.06625 0.2841887,0.03313 0.566634,0.05057 0.8508227,0.05057 1.0966546,0 2.1235696,-0.156914 3.0790016,-0.472485 0.9571742,-0.31557 1.7870752,-0.744469 2.4879582,-1.291923 0.702626,-0.549208 1.253568,-1.1942975 1.656314,-1.935279 0.40449,-0.7374946 0.606735,-1.5342677 0.606735,-2.3868323 0,-0.2283967 -0.01744,-0.4585369 -0.05056,-0.6991379 0.533508,0.4341279 0.955432,0.9205606 1.264031,1.4592977 C 15.844829,7.7158702 16,8.2947076 16,8.9119016 M 12.985506,6.4152297 c 0,0.6520637 -0.169117,1.2675142 -0.509097,1.8463516 C 12.138172,8.8404186 11.674403,9.3442861 11.088591,9.7714398 10.501035,10.200338 9.8141008,10.540318 9.0260438,10.789636 8.2379867,11.040698 7.394138,11.16623 6.4927542,11.16623 c -0.2057317,0 -0.40972,-0.0082 -0.6137082,-0.02616 -0.2022447,-0.01569 -0.4010025,-0.03487 -0.5962732,-0.05753 -0.8176964,0.627655 -1.7522065,1.061783 -2.8035304,1.291923 -0.1115833,0.02441 -0.2249101,0.04533 -0.3382369,0.06451 -0.1150703,0.01917 -0.235371,0.0401 -0.3643892,0.06277 -0.066253,0.01046 -0.1255312,-0.007 -0.1795794,-0.05579 -0.052305,-0.04708 -0.090661,-0.09764 -0.1115833,-0.153426 l 0,-0.0157 c -0.022665,-0.06799 -0.013948,-0.122044 0.024409,-0.163888 0.038357,-0.04009 0.088918,-0.09066 0.14994,-0.146453 C 1.760925,11.867106 1.8568169,11.765985 1.9474783,11.66312 2.0398833,11.560254 2.1218272,11.441697 2.1950538,11.312679 2.2665368,11.181917 2.3345329,11.026748 2.399042,10.848912 2.463551,10.671079 2.5175991,10.4514 2.5611864,10.188133 1.7766163,9.7557488 1.1541907,9.2117811 0.69216609,8.5579739 0.23014056,7.9041666 0,7.1910809 0,6.4152297 0,5.7544484 0.17086193,5.1355109 0.51258578,4.5601605 0.85430964,3.9848101 1.3198212,3.4809427 1.907377,3.0537887 2.4931894,2.6266345 3.1783805,2.2849113 3.9646941,2.0355928 c 0.7828266,-0.251062 1.6266753,-0.376593 2.5280591,-0.376593 0.9013839,0 1.7452326,0.125531 2.5332896,0.376593 0.7880571,0.2493185 1.4749912,0.5910417 2.0625462,1.0181959 0.585813,0.427154 1.049581,0.9310214 1.387818,1.5063718 0.33998,0.5753504 0.509099,1.1942879 0.509099,1.8550692"
       id="path82"
       inkscape:connector-curvature="0"
       style="fill:#ffffff;stroke:none;fill-opacity:1" />
  </g>
</svg>
