<?xml version="1.0" encoding="UTF-8" standalone="no"?>
<!-- Created with Inkscape (http://www.inkscape.org/) -->

<svg
   xmlns:dc="http://purl.org/dc/elements/1.1/"
   xmlns:cc="http://creativecommons.org/ns#"
   xmlns:rdf="http://www.w3.org/1999/02/22-rdf-syntax-ns#"
   xmlns:svg="http://www.w3.org/2000/svg"
   xmlns="http://www.w3.org/2000/svg"
   xmlns:sodipodi="http://sodipodi.sourceforge.net/DTD/sodipodi-0.dtd"
   xmlns:inkscape="http://www.inkscape.org/namespaces/inkscape"
   width="16px"
   height="16px"
   id="svg4545"
   version="1.1"
   inkscape:version="0.48.5 r10040"
   sodipodi:docname="New document 7">
  <defs
     id="defs4547" />
  <sodipodi:namedview
     id="base"
     pagecolor="#d3d3d3"
     bordercolor="#666666"
     borderopacity="1.0"
     inkscape:pageopacity="0.82745098"
     inkscape:pageshadow="2"
     inkscape:zoom="22.197802"
     inkscape:cx="8"
     inkscape:cy="8"
     inkscape:current-layer="layer1"
     showgrid="true"
     inkscape:grid-bbox="true"
     inkscape:document-units="px"
     inkscape:window-width="1175"
     inkscape:window-height="899"
     inkscape:window-x="100"
     inkscape:window-y="26"
     inkscape:window-maximized="0" />
  <metadata
     id="metadata4550">
    <rdf:RDF>
      <cc:Work
         rdf:about="">
        <dc:format>image/svg+xml</dc:format>
        <dc:type
           rdf:resource="http://purl.org/dc/dcmitype/StillImage" />
        <dc:title></dc:title>
      </cc:Work>
    </rdf:RDF>
  </metadata>
  <g
     id="layer1"
     inkscape:label="Layer 1"
     inkscape:groupmode="layer">
    <path
       d="m 14.63375,12.532813 c 0.1725,0.174375 0.260625,0.373125 0.260625,0.59625 0,0.225 -0.08812,0.425625 -0.260625,0.598125 l -0.898125,0.915 c -0.1725,0.174375 -0.376875,0.260625 -0.61125,0.260625 -0.2325,0 -0.433125,-0.08625 -0.6,-0.260625 L 8,10.110313 3.45875,14.642188 c -0.174375,0.174375 -0.373125,0.260625 -0.59625,0.260625 -0.225,0 -0.425625,-0.08625 -0.598125,-0.260625 L 1.36625,13.744063 c -0.174375,-0.170625 -0.260625,-0.375 -0.260625,-0.605625 0,-0.22875 0.08625,-0.43125 0.260625,-0.605625 l 4.56,-4.5768755 -4.56,-4.48875 c -0.174375,-0.174375 -0.260625,-0.375 -0.260625,-0.605625 0,-0.230625 0.08625,-0.433125 0.260625,-0.60375 l 0.898125,-0.9 c 0.1725,-0.174375 0.376875,-0.260625 0.61125,-0.260625 0.2325,0 0.433125,0.08625 0.6,0.260625 L 8,5.8821875 12.524375,1.3578125 c 0.1725,-0.174375 0.375,-0.260625 0.605625,-0.260625 0.22875,0 0.433125,0.08625 0.605625,0.260625 l 0.898125,0.9 c 0.1725,0.170625 0.260625,0.375 0.260625,0.609375 0,0.2325 -0.08812,0.433125 -0.260625,0.6 l -4.561875,4.576875 z"
       id="path670"
       inkscape:connector-curvature="0"
       style="fill:#262626;stroke:none" />
  </g>
</svg>
