<?xml version="1.0" encoding="UTF-8" standalone="no"?>
<!-- Created with Inkscape (http://www.inkscape.org/) -->

<svg
   xmlns:dc="http://purl.org/dc/elements/1.1/"
   xmlns:cc="http://creativecommons.org/ns#"
   xmlns:rdf="http://www.w3.org/1999/02/22-rdf-syntax-ns#"
   xmlns:svg="http://www.w3.org/2000/svg"
   xmlns="http://www.w3.org/2000/svg"
   xmlns:xlink="http://www.w3.org/1999/xlink"
   version="1.1"
   width="16"
   height="16"
   id="svg5963">
  <defs
     id="defs5965">
    <linearGradient
       id="linearGradient3752">
      <stop
         id="stop3754"
         style="stop-color:#ffffff;stop-opacity:1"
         offset="0" />
    </linearGradient>
    <linearGradient
       x1="0.921875"
       y1="8"
       x2="15.078125"
       y2="8"
       id="linearGradient3756"
       xlink:href="#linearGradient3752"
       gradientUnits="userSpaceOnUse" />
  </defs>
  <metadata
     id="metadata5968">
    <rdf:RDF>
      <cc:Work
         rdf:about="">
        <dc:format>image/svg+xml</dc:format>
        <dc:type
           rdf:resource="http://purl.org/dc/dcmitype/StillImage" />
        <dc:title></dc:title>
      </cc:Work>
    </rdf:RDF>
  </metadata>
  <g
     id="layer1"
     style="fill:url(#linearGradient3756);fill-opacity:1">
    <path
       d="m 11.32625,5.17625 c 1.13625,0 2.045625,0.285 2.728125,0.856875 0.6825,0.57375 1.02375,1.449375 1.02375,2.634375 l 0,5.998125 c 0,0.09375 -0.03937,0.18 -0.1125,0.255 -0.075,0.075 -0.16125,0.1125 -0.255,0.1125 l -2.595,0 c -0.09563,0 -0.178125,-0.0375 -0.2475,-0.1125 -0.0675,-0.075 -0.103125,-0.16125 -0.103125,-0.255 l 0,-5.4225 c 0,-0.45375 -0.0825,-0.8025 -0.245625,-1.0425 C 11.354375,7.9625 11.020625,7.8425 10.518125,7.8425 10.199375,7.8425 9.935,7.895 9.719375,8 9.50375,8.105 9.333125,8.245625 9.21125,8.42 9.089375,8.598125 9.005,8.81 8.95625,9.05375 8.9075,9.299375 8.883125,9.56375 8.883125,9.845 l 0,4.820625 c 0,0.09375 -0.035625,0.18 -0.110625,0.255 -0.075,0.075 -0.159375,0.1125 -0.256875,0.1125 l -2.521875,0 c -0.095625,0 -0.18,-0.0375 -0.255,-0.1125 -0.076875,-0.075 -0.1125,-0.16125 -0.1125,-0.255 l 0,-8.896875 c 0,-0.09375 0.035625,-0.18 0.1125,-0.255 0.075,-0.07375 0.159375,-0.1125 0.255,-0.1125 l 2.450625,0 c 0.196875,0 0.3075,0.075 0.331875,0.22875 0.024375,0.151875 0.035625,0.29625 0.035625,0.436875 0.34125,-0.31875 0.729375,-0.545625 1.1625,-0.684375 0.435,-0.136875 0.885,-0.20625 1.351875,-0.20625 m -7.423125,0.225 c 0.095625,0 0.18,0.03625 0.255,0.10875 0.075,0.07125 0.1125,0.1575 0.1125,0.25875 l 0,8.896875 c 0,0.09375 -0.0375,0.18 -0.1125,0.255 -0.075,0.075 -0.159375,0.1125 -0.255,0.1125 l -2.52375,0 c -0.09375,0 -0.18,-0.0375 -0.255,-0.1125 -0.073125,-0.075 -0.1125,-0.16125 -0.1125,-0.255 l 0,-8.896875 c 0,-0.09375 0.039375,-0.18 0.1125,-0.255 0.075,-0.07375 0.16125,-0.1125 0.255,-0.1125 z m -1.275,-4.434375 c 0.2325,0 0.455625,0.04625 0.66375,0.13875 0.21,0.09375 0.39375,0.215625 0.553125,0.3675 0.1575,0.15375 0.279375,0.33375 0.3675,0.54375 0.08625,0.21 0.129375,0.43125 0.129375,0.665625 0,0.2325 -0.043125,0.451875 -0.129375,0.658125 -0.088125,0.20625 -0.21,0.388125 -0.3675,0.54 -0.159375,0.151875 -0.343125,0.27375 -0.553125,0.3675 -0.208125,0.09375 -0.43125,0.13875 -0.66375,0.13875 -0.234375,0 -0.45375,-0.045 -0.66,-0.13875 C 1.761875,4.154375 1.581875,4.0325 1.43,3.880625 1.278125,3.72875 1.154375,3.546875 1.060625,3.340625 0.96875,3.134375 0.921875,2.915 0.921875,2.6825 c 0,-0.234375 0.046875,-0.455625 0.13875,-0.665625 0.09375,-0.21 0.2175,-0.39 0.369375,-0.54375 0.151875,-0.151875 0.331875,-0.27375 0.538125,-0.3675 0.20625,-0.09125 0.425625,-0.13875 0.66,-0.13875"
       id="path1434"
       style="fill:url(#linearGradient3756);fill-opacity:1;stroke:none" />
  </g>
</svg>
