<?xml version="1.0" encoding="UTF-8" standalone="no"?>
<!-- Created with Inkscape (http://www.inkscape.org/) -->

<svg
   xmlns:dc="http://purl.org/dc/elements/1.1/"
   xmlns:cc="http://creativecommons.org/ns#"
   xmlns:rdf="http://www.w3.org/1999/02/22-rdf-syntax-ns#"
   xmlns:svg="http://www.w3.org/2000/svg"
   xmlns="http://www.w3.org/2000/svg"
   version="1.1"
   width="16"
   height="16"
   id="svg9551">
  <defs
     id="defs9553" />
  <metadata
     id="metadata9556">
    <rdf:RDF>
      <cc:Work
         rdf:about="">
        <dc:format>image/svg+xml</dc:format>
        <dc:type
           rdf:resource="http://purl.org/dc/dcmitype/StillImage" />
        <dc:title></dc:title>
      </cc:Work>
    </rdf:RDF>
  </metadata>
  <g
     id="layer1">
    <path
       d="m 15.339908,11.885959 c 0.179531,0 0.335486,0.06528 0.46424,0.194038 C 15.934717,12.210565 16,12.371962 16,12.562373 l 0,0.99014 c 0,0.190411 -0.06528,0.34818 -0.195852,0.473308 -0.128754,0.123314 -0.28471,0.184971 -0.464241,0.184971 l -10.1317009,0 c -0.1904114,0 -0.3499943,-0.06166 -0.4823756,-0.184971 C 4.5970761,13.900693 4.5317922,13.742924 4.5317922,13.552513 l 0,-0.99014 c 0,-0.190411 0.065284,-0.351808 0.1940383,-0.482376 0.1323813,-0.128754 0.2919642,-0.194038 0.4823756,-0.194038 z m 0,-4.8364504 c 0.179531,0 0.335486,0.065284 0.46424,0.1940384 C 15.934717,7.3759282 16,7.5373246 16,7.7259226 l 0,0.9901395 c 0,0.1904114 -0.06528,0.3518078 -0.195852,0.484189 -0.128754,0.1287544 -0.28471,0.1940384 -0.464241,0.1940384 l -10.1317009,0 c -0.1904114,0 -0.3499943,-0.065284 -0.4823756,-0.1940384 C 4.5970761,9.0678699 4.5317922,8.9064735 4.5317922,8.7160621 l 0,-0.9901395 c 0,-0.188598 0.065284,-0.3499944 0.1940383,-0.4823756 C 4.8582118,7.1147926 5.0177947,7.0495086 5.2082061,7.0495086 z m 0,-4.834637 c 0.179531,0 0.335486,0.062866 0.46424,0.1940383 C 15.934717,2.5412912 16,2.7008741 16,2.8912856 l 0,0.9901394 c 0,0.1904115 -0.06528,0.3518078 -0.195852,0.4823757 -0.128754,0.1287544 -0.284709,0.1940383 -0.46424,0.1940383 l -10.1317019,0 C 5.0177947,4.557839 4.8582118,4.492555 4.7258305,4.3638007 4.5970761,4.2332328 4.5317922,4.0718365 4.5317922,3.881425 l 0,-0.9901394 c 0,-0.1904115 0.065284,-0.3499944 0.1940383,-0.4823757 C 4.8582118,2.2783421 5.0177947,2.2148716 5.2082061,2.2148716 z M 1.6756206,11.390889 c 0.2266803,0 0.4388531,0.04352 0.6365183,0.130568 0.2012921,0.08704 0.377196,0.203106 0.5295251,0.349995 0.1541426,0.146888 0.2774567,0.326419 0.3663153,0.534965 0.088859,0.206732 0.1341948,0.424346 0.1341948,0.651026 0,0.235747 -0.045336,0.456987 -0.1341948,0.660093 -0.088859,0.203105 -0.2121727,0.377196 -0.3663153,0.525898 -0.1523291,0.146889 -0.3300465,0.264763 -0.533152,0.353621 -0.2012921,0.09067 -0.4134648,0.134195 -0.6328914,0.134195 -0.4624277,0 -0.85775815,-0.16321 -1.18417775,-0.487816 C 0.1632098,13.915201 0,13.519871 0,13.057443 c 0,-0.22668 0.04352261,-0.444294 0.13419473,-0.651026 0.0906721,-0.208546 0.20854586,-0.388077 0.35724812,-0.534965 0.14688882,-0.146889 0.32097928,-0.26295 0.52589825,-0.349995 0.2012921,-0.08704 0.4207186,-0.130568 0.6582795,-0.130568 m 0,-4.8437039 c 0.2266803,0 0.4388531,0.043523 0.6365183,0.1341948 0.2012921,0.088254 0.377196,0.2085458 0.5295251,0.3554346 0.1541426,0.1468889 0.2774567,0.3264196 0.3663153,0.5331521 0.088859,0.2085458 0.1341948,0.4243454 0.1341948,0.6510257 0,0.237561 -0.045336,0.4569875 -0.1341948,0.660093 C 3.1191207,9.0841908 2.9958066,9.2600947 2.841664,9.4069836 2.6893349,9.5538724 2.5116175,9.6735596 2.308512,9.7624182 2.1072199,9.8530903 1.8950472,9.896613 1.6756206,9.896613 1.4380597,9.896613 1.2186332,9.8530903 1.0173411,9.7624182 0.81242213,9.674164 0.63833167,9.5538724 0.49144285,9.4069836 0.34274059,9.2600947 0.22486684,9.0841908 0.13419473,8.8810853 0.04352261,8.6779798 0,8.4585533 0,8.2209923 0,7.994312 0.04352261,7.7785124 0.13419473,7.5699666 0.22486684,7.3632341 0.34274059,7.1837034 0.49144285,7.0368145 0.63833167,6.8899257 0.81242213,6.7702385 1.0173411,6.6813799 1.2186332,6.5907077 1.4380597,6.5471851 1.6756206,6.5471851 m 0,-4.8364505 c 0.2266803,0 0.4388531,0.045941 0.6365183,0.1341948 0.2012921,0.090672 0.377196,0.2085458 0.5295251,0.3554347 0.1541426,0.1487022 0.2774567,0.3264196 0.3663153,0.5349654 0.088859,0.2085459 0.1341948,0.4243455 0.1341948,0.6510258 0,0.2375609 -0.045336,0.4569874 -0.1341948,0.660093 C 3.1191207,4.2477404 2.9958066,4.4236443 2.841664,4.5705331 2.6893349,4.7192353 2.5116175,4.8352956 2.308512,4.9223409 2.1072199,5.0093861 1.8950472,5.0529087 1.6756206,5.0529087 1.4380597,5.0529087 1.2186332,5.0093861 1.0173411,4.9223409 0.81242213,4.8352956 0.63833167,4.7192353 0.49144285,4.5705331 0.34274059,4.4236443 0.22486684,4.2477404 0.13419473,4.0464483 0.04352261,3.8433427 0,3.6239162 0,3.3863553 0,3.159675 0.04352261,2.9438754 0.13419473,2.7353295 0.22486684,2.5267837 0.34274059,2.3490663 0.49144285,2.2003641 0.63833167,2.0534752 0.81242213,1.9356015 1.0173411,1.8449294 1.2186332,1.7566752 1.4380597,1.7107346 1.6756206,1.7107346"
       id="path1096"
       style="fill:#ffffff;fill-opacity:1;stroke:none" />
  </g>
</svg>
