<?xml version="1.0" encoding="UTF-8" standalone="no"?>
<!-- Created with Inkscape (http://www.inkscape.org/) -->

<svg
   xmlns:dc="http://purl.org/dc/elements/1.1/"
   xmlns:cc="http://creativecommons.org/ns#"
   xmlns:rdf="http://www.w3.org/1999/02/22-rdf-syntax-ns#"
   xmlns:svg="http://www.w3.org/2000/svg"
   xmlns="http://www.w3.org/2000/svg"
   version="1.1"
   width="16"
   height="16"
   id="svg7923">
  <defs
     id="defs7925" />
  <metadata
     id="metadata7928">
    <rdf:RDF>
      <cc:Work
         rdf:about="">
        <dc:format>image/svg+xml</dc:format>
        <dc:type
           rdf:resource="http://purl.org/dc/dcmitype/StillImage" />
        <dc:title></dc:title>
      </cc:Work>
    </rdf:RDF>
  </metadata>
  <g
     id="layer1">
    <path
       d="m 15.341646,11.690536 c 0.179551,0 0.333711,0.06347 0.464294,0.19406 C 15.936522,12.016993 16,12.171153 16,12.34889 l 0,1.868057 c 0,0.190433 -0.06348,0.350034 -0.19406,0.480617 -0.130583,0.130583 -0.284743,0.195874 -0.464294,0.195874 l -14.66515541,0 c -0.19043301,0 -0.350034,-0.06529 -0.48243029,-0.195874 C 0.06347767,14.566981 0,14.40738 0,14.216947 L 0,12.34889 c 0,-0.177737 0.06347767,-0.331897 0.1940603,-0.464294 0.13239629,-0.130582 0.29199728,-0.19406 0.48243029,-0.19406 z m 0,-5.061891 c 0.179551,0 0.333711,0.063478 0.464294,0.1940603 C 15.936522,6.9551015 16,7.1056343 16,7.2779308 l 0,1.8934482 c 0,0.1795511 -0.06348,0.3337112 -0.19406,0.4606665 -0.130583,0.128769 -0.284743,0.1922467 -0.464294,0.1922467 l -14.66515541,0 c -0.19043301,0 -0.350034,-0.065291 -0.48243029,-0.1976876 C 0.06347767,9.4978356 0,9.3454892 0,9.171379 L 0,7.2779308 C 0,7.1001934 0.06347767,6.9478469 0.1940603,6.819078 0.32645659,6.6921226 0.48605758,6.628645 0.67649059,6.628645 z m 0,-5.070959 c 0.179551,0 0.333711,0.065291 0.464294,0.1958739 C 15.936522,1.8823289 16,2.0383026 16,2.2160401 l 0,1.88438 c 0,0.1795511 -0.06348,0.3355248 -0.19406,0.4642938 -0.130583,0.1323963 -0.284743,0.1976876 -0.464294,0.1976876 l -14.66515541,0 c -0.19043301,0 -0.350034,-0.065291 -0.48243029,-0.1976876 C 0.06347767,4.4359449 0,4.2799712 0,4.1004201 l 0,-1.88438 C 0,2.0383026 0.06347767,1.8823289 0.1940603,1.7535599 0.32645659,1.6229773 0.48605758,1.557686 0.67649059,1.557686 z"
       id="path676"
       style="fill:#ffffff;fill-opacity:1;stroke:none" />
  </g>
</svg>
