<?xml version="1.0" encoding="UTF-8" standalone="no"?>
<!-- Created with Inkscape (http://www.inkscape.org/) -->

<svg
   xmlns:osb="http://www.openswatchbook.org/uri/2009/osb"
   xmlns:dc="http://purl.org/dc/elements/1.1/"
   xmlns:cc="http://creativecommons.org/ns#"
   xmlns:rdf="http://www.w3.org/1999/02/22-rdf-syntax-ns#"
   xmlns:svg="http://www.w3.org/2000/svg"
   xmlns="http://www.w3.org/2000/svg"
   xmlns:xlink="http://www.w3.org/1999/xlink"
   xmlns:sodipodi="http://sodipodi.sourceforge.net/DTD/sodipodi-0.dtd"
   xmlns:inkscape="http://www.inkscape.org/namespaces/inkscape"
   version="1.1"
   width="16"
   height="16"
   id="svg6004"
   inkscape:version="0.48.5 r10040"
   sodipodi:docname="twitter.svg">
  <sodipodi:namedview
     pagecolor="#d3d3d3"
     bordercolor="#666666"
     borderopacity="1"
     objecttolerance="10"
     gridtolerance="10"
     guidetolerance="10"
     inkscape:pageopacity="1"
     inkscape:pageshadow="2"
     inkscape:window-width="708"
     inkscape:window-height="480"
     id="namedview7374"
     showgrid="false"
     inkscape:zoom="14.75"
     inkscape:cx="8"
     inkscape:cy="8"
     inkscape:window-x="515"
     inkscape:window-y="141"
     inkscape:window-maximized="0"
     inkscape:current-layer="svg6004" />
  <defs
     id="defs6006">
    <linearGradient
       id="linearGradient7884"
       osb:paint="solid">
      <stop
         style="stop-color:#ffffff;stop-opacity:1;"
         offset="0"
         id="stop7886" />
    </linearGradient>
    <linearGradient
       inkscape:collect="always"
       xlink:href="#linearGradient7884"
       id="linearGradient7888"
       x1="0"
       y1="8"
       x2="16"
       y2="8"
       gradientUnits="userSpaceOnUse" />
  </defs>
  <metadata
     id="metadata6009">
    <rdf:RDF>
      <cc:Work
         rdf:about="">
        <dc:format>image/svg+xml</dc:format>
        <dc:type
           rdf:resource="http://purl.org/dc/dcmitype/StillImage" />
        <dc:title />
      </cc:Work>
    </rdf:RDF>
  </metadata>
  <g
     id="layer1"
     style="fill-opacity:1;fill:url(#linearGradient7888)">
    <path
       d="m 15.470475,7.16825 c 0.132382,-0.025 0.255695,0 0.364501,0.0675 C 15.945596,7.30325 16,7.4195 16,7.5825 16,7.755 15.923843,7.905 15.769693,8.03075 15.61555,8.1545 15.437832,8.267 15.236541,8.36625 15.033436,8.46375 14.823076,8.54075 14.605462,8.597 14.389664,8.6495 14.221013,8.68325 14.099513,8.6945 13.849259,9.527 13.466621,10.262 12.94435,10.90125 12.422079,11.5425 11.814575,12.076875 11.121842,12.5045 10.427293,12.932 9.6801542,13.26 8.8804262,13.487 8.0825117,13.71575 7.2864106,13.83 6.4939363,13.83 5.2281537,13.83 4.0240282,13.54875 2.8888134,12.98825 1.755412,12.43125 0.81604896,11.612 0.07072425,10.53375 0.02357472,10.43875 0,10.36125 0,10.30125 c 0,-0.12 0.03808231,-0.21925 0.1160603,-0.3 0.077978,-0.0825 0.17771733,-0.12375 0.29015073,-0.12375 0.0816049,0 0.17227701,0.0375 0.27020289,0.10875 0.71086928,0.654375 1.54323938,0.975125 2.49348298,0.97125 0.3391137,0 0.6800408,-0.04625 1.0191545,-0.13675 0.3391137,-0.09 0.6492122,-0.2325 0.9321092,-0.4295 C 4.9543239,10.29625 4.8165023,10.17 4.7095092,10.0145 4.6025162,9.85875 4.5499264,9.6845 4.5499264,9.49325 c 0,-0.137 0.021761,-0.255 0.068911,-0.35075 C 4.515471,9.1075 4.3849031,9.0475 4.232574,8.95875 4.0802449,8.8725 3.9315426,8.7695 3.7900941,8.655125 3.6468321,8.536375 3.5289584,8.4095 3.432846,8.267 3.338547,8.12825 3.289584,7.9895 3.289584,7.850625 c 0,-0.09625 0.029015,-0.179875 0.087045,-0.254875 0.05803,-0.075 0.1305681,-0.1425 0.2176133,-0.2025 C 3.3566814,7.24325 3.1372549,7.021875 2.9341495,6.7295 2.7328573,6.435 2.6313045,6.1425 2.6313045,5.850125 2.6313045,5.65125 2.727417,5.52375 2.9178285,5.46375 2.7147229,5.25375 2.5533266,5.012 2.4354528,4.73625 2.3157656,4.4625 2.2577354,4.175625 2.2577354,3.88325 c 0,-0.137 0.027202,-0.262625 0.083419,-0.37325 0.05259,-0.11 0.1632098,-0.165 0.3227926,-0.165 0.1051798,0 0.3499944,0.08125 0.7308172,0.242 0.380823,0.16125 0.7942878,0.34125 1.2367676,0.54375 0.4442934,0.19875 0.8668254,0.403 1.2730363,0.6055 0.4025842,0.2045 0.6872947,0.347 0.8486911,0.43125 C 6.8983345,5.2525 7.0379695,5.34375 7.166724,5.44875 7.2954777,5.55375 7.4242321,5.6625 7.5529866,5.777 7.6672334,5.473125 7.805055,5.154375 7.9610109,4.82075 8.116967,4.488875 8.2910576,4.170125 8.4814689,3.8645 8.6736938,3.56075 8.8840531,3.271875 9.1161736,3.003875 9.3464808,2.73375 9.605803,2.5145 9.8887,2.34 9.934038,2.3025 10.002947,2.28625 10.097247,2.28625 c 0.103366,0 0.181344,0.0225 0.233933,0.07125 0.09249,-0.03625 0.212173,-0.075 0.360876,-0.1225 0.145075,-0.0425 0.270203,-0.065 0.368128,-0.065 0.166837,0 0.291964,0.08 0.371757,0.24175 0.181343,0 0.344553,0.0475 0.493256,0.13875 0.145075,0.09375 0.219427,0.24375 0.219427,0.453875 0,0.185625 -0.07797,0.344875 -0.233934,0.474375 0.556726,0.25875 1.017339,0.631875 1.385469,1.123 0.368129,0.49125 0.629264,1.037 0.78522,1.633125 0.03445,0.0125 0.09974,0.01875 0.199478,0.01875 0.272016,0 0.527711,-0.05125 0.765273,-0.14825 0.235747,-0.09875 0.40077,-0.148 0.493255,-0.148 0.105182,0 0.195852,0.0425 0.27383,0.12925 0.07797,0.08875 0.117873,0.18375 0.117873,0.2925 0,0.137 -0.05622,0.28125 -0.170463,0.435125 -0.112433,0.153625 -0.208545,0.269875 -0.290151,0.354375 z"
       id="path1406"
       style="fill:url(#linearGradient7888);stroke:none;fill-opacity:1" />
  </g>
</svg>
