<?xml version="1.0" encoding="UTF-8" standalone="no"?>
<!-- Created with Inkscape (http://www.inkscape.org/) -->

<svg
   xmlns:dc="http://purl.org/dc/elements/1.1/"
   xmlns:cc="http://creativecommons.org/ns#"
   xmlns:rdf="http://www.w3.org/1999/02/22-rdf-syntax-ns#"
   xmlns:svg="http://www.w3.org/2000/svg"
   xmlns="http://www.w3.org/2000/svg"
   version="1.1"
   width="16"
   height="16"
   id="svg9017">
  <defs
     id="defs9019" />
  <metadata
     id="metadata9022">
    <rdf:RDF>
      <cc:Work
         rdf:about="">
        <dc:format>image/svg+xml</dc:format>
        <dc:type
           rdf:resource="http://purl.org/dc/dcmitype/StillImage" />
        <dc:title></dc:title>
      </cc:Work>
    </rdf:RDF>
  </metadata>
  <g
     id="layer1">
    <path
       d="m 10.059189,8.0317275 c 0.162373,0.026129 0.390065,0.053502 0.688679,0.090828 0.296747,0.033595 0.606558,0.073409 0.929435,0.1132243 0.321009,0.042303 0.621489,0.085851 0.903306,0.1306434 0.278084,0.044792 0.479648,0.085851 0.606558,0.1194455 0.207164,0.059722 0.418059,0.1866334 0.630822,0.3751332 0.210896,0.1922325 0.404994,0.41246 0.584162,0.6625489 0.179168,0.2500889 0.322877,0.5076432 0.43299,0.7782622 0.110114,0.26502 0.164237,0.50951 0.164237,0.731603 l 0,3.456453 c -0.05973,0.02613 -0.125044,0.06595 -0.199698,0.125044 -0.07466,0.06097 -0.154905,0.119446 -0.240757,0.175435 -0.08772,0.05599 -0.169836,0.107004 -0.246356,0.147441 C 14.234181,14.980093 14.168859,15 14.116602,15 L 1.875311,15 C 1.6662815,15 1.5095094,14.936545 1.401262,14.807768 1.2948809,14.680857 1.1605048,14.574476 1,14.490491 L 1,11.034038 C 1,10.811945 1.05599,10.567455 1.1642375,10.302436 1.2762175,10.031817 1.418059,9.7779947 1.5953608,9.5335049 1.7707963,9.289015 1.9648951,9.0687875 2.1795236,8.870956 2.3941521,8.6768572 2.6050479,8.5462138 2.8140775,8.4864911 2.9204585,8.4528971 3.1164236,8.4118377 3.4038393,8.3670457 3.6893885,8.3222536 3.9954674,8.2787058 4.3202096,8.2364022 4.6449519,8.1953428 4.9547635,8.1567719 5.2533776,8.1231779 5.5501248,8.0858512 5.779684,8.057234 5.9401888,8.0323496 5.3933527,7.6814786 4.9640951,7.2242266 4.6505509,6.6624599 4.3370067,6.0988268 4.1821008,5.486669 4.1821008,4.8241201 c 0,-0.5225738 0.098916,-1.0171526 0.3023463,-1.4781372 C 4.6860113,2.8849982 4.9603625,2.4800035 5.3019022,2.1309989 5.6453079,1.7838606 6.0465699,1.5076431 6.5094209,1.306079 6.9704056,1.1026484 7.4612516,1 7.9875581,1 c 0.5244401,0 1.0190187,0.1020263 1.4837361,0.306079 0.4647174,0.2015641 0.8697118,0.4777816 1.2187178,0.8249199 0.347137,0.3490046 0.621489,0.7539993 0.821186,1.214984 0.199698,0.4609846 0.298614,0.9555634 0.298614,1.4781372 0,0.6513508 -0.154905,1.2597759 -0.464717,1.8290081 -0.309812,0.5673658 -0.737203,1.0283504 -1.285906,1.3792214 z"
       id="path886"
       style="fill:#ffffff;fill-opacity:1;stroke:none" />
  </g>
</svg>
